<svg xmlns="http://www.w3.org/2000/svg" width="50" height="38.372" fill="none" overflow="visible" preserveAspectRatio="none" style="display:block" viewBox="0 0 50 38.372"><g fill="#1e1e1e" fill-rule="evenodd" clip-rule="evenodd" opacity=".7"><path d="M6.395 3.488a2.907 2.907 0 0 0-2.907 2.907v25.582a2.907 2.907 0 0 0 2.907 2.907h37.21a2.907 2.907 0 0 0 2.906-2.907V6.395a2.907 2.907 0 0 0-2.907-2.907zM0 6.395A6.395 6.395 0 0 1 6.395 0h37.21A6.395 6.395 0 0 1 50 6.395v25.582a6.395 6.395 0 0 1-6.396 6.395H6.395A6.395 6.395 0 0 1 0 31.977z"/><path d="M1.342 9.243a1.744 1.744 0 0 1 2.334-.797l21.068 10.35c.162.079.35.079.512 0l21.068-10.35a1.744 1.744 0 1 1 1.538 3.131l-21.067 10.35a4.07 4.07 0 0 1-3.59 0L2.139 11.576a1.744 1.744 0 0 1-.796-2.334"/><path d="M33.414 19.482a.58.58 0 0 0-.598-.052l-6.025 2.953a4.07 4.07 0 0 1-3.582 0l-6.025-2.953a.58.58 0 0 0-.598.052L2.77 29.512a1.744 1.744 0 1 1-2.05-2.823l13.818-10.03a4.07 4.07 0 0 1 4.182-.361l6.025 2.952c.162.08.35.08.512 0l6.025-2.952a4.07 4.07 0 0 1 4.182.361l13.817 10.03a1.744 1.744 0 1 1-2.049 2.823z"/></g></svg>