<svg preserveAspectRatio="none" overflow="visible" style="display: block;" width="177.19" height="91.4509" viewBox="0 0 177.19 91.4509" fill="none" xmlns="http://www.w3.org/2000/svg">
<g id="Group 1000005859">
<path id="Vector" d="M52.0049 11.3218C52.9912 11.4617 55.5235 13.1878 56.3577 13.8646C63.1483 19.5657 69.514 25.8265 76.3536 31.4629C76.6614 31.7165 76.9622 31.9893 77.3347 32.1485C83.5552 28.6911 89.6988 25.0868 96.0208 21.806C114.09 12.4306 133.512 6.02817 152.922 0C152.385 0.619081 151.568 1.03705 150.865 1.46376C144.736 5.18873 138.396 8.58843 132.188 12.1805C116.659 21.1659 101.285 30.4329 86.0805 39.9517L116.415 66.6963H101.718C100.555 66.6963 97.0001 63.9542 95.9876 63.1375C89.8877 58.2303 84.5958 52.2983 78.4924 47.3929C78.2248 47.1778 76.8223 46.0113 76.6194 46.0288C59.3236 55.8117 42.1765 65.8621 25.1938 76.1749C18.7599 80.0817 12.3942 84.1023 5.94982 87.9934C4.19751 89.0514 2.20911 90.4067 0.416573 91.3144C0.285412 91.3808 0.164744 91.47 0.00560137 91.4473C-0.0258773 91.3109 0.0825458 91.2759 0.15075 91.1937C1.36093 89.723 3.49273 87.9724 4.939 86.6206C18.9488 73.5447 33.4132 60.8518 49.261 50.0196C55.2734 45.9081 61.4607 42.0625 67.6428 38.2099L37.2344 11.3201H52.0031L52.0049 11.3218Z" fill="white"/>
<path id="Vector_2" d="M174.536 25.7832L174.601 33.5741H128.549L128.5 33.6231V41.1727C135.212 41.1815 141.926 41.1605 148.638 41.1727C154.002 41.1815 159.374 41.15 164.732 41.4001C166.824 41.498 168.739 41.5889 170.722 42.3322C176.371 44.4465 177.609 50.312 177.079 55.7736C176.736 59.3009 175.57 62.51 172.441 64.432C167.891 67.2266 162.27 66.6862 157.156 66.6757C153.421 66.6687 150.068 66.6739 146.333 66.6757C141.398 66.6792 136.414 66.7859 131.48 66.66C127.934 66.569 124.307 66.2752 121.183 64.4442C118.88 63.0941 117.254 61.013 116.461 58.4633H162.001C163.763 58.3513 165.187 56.9278 165.301 55.165C165.364 54.1717 165.358 52.7464 165.301 51.7496C165.197 49.9675 163.805 48.5632 162.032 48.4181H117.007V25.8356L117.056 25.7867H174.538L174.536 25.7832Z" fill="white"/>
<g id="Group">
<path id="Vector_3" d="M52.8062 80.0539C53.0318 80.3477 53.2189 80.5873 53.4025 80.8286C55.1094 83.0689 56.8215 85.3056 58.5196 87.5528C58.7539 87.8641 59.0057 88.0495 59.4045 88.0005C59.5741 87.9795 59.7472 87.997 59.9361 87.997V77.5304H58.6577V85.3913C58.642 85.3983 58.628 85.4053 58.6122 85.4123C58.4549 85.2094 58.2957 85.0065 58.1401 84.8019C56.3825 82.497 54.6215 80.1921 52.8709 77.8819C52.6733 77.6213 52.4494 77.4936 52.1276 77.5181C51.9265 77.5321 51.7254 77.5216 51.5086 77.5216V87.99H52.8079V80.0574L52.8062 80.0539Z" fill="white"/>
<path id="Vector_4" d="M110.831 77.5316V87.9808H112.304V83.6822C112.738 83.6822 113.149 83.656 113.554 83.6962C113.707 83.7119 113.88 83.8571 113.978 83.9918C114.864 85.1984 115.74 86.4139 116.61 87.6345C116.788 87.8864 117.003 88.007 117.309 88C117.718 87.9895 118.126 87.9965 118.58 87.9965C117.445 86.4401 116.338 84.9239 115.224 83.3972C115.284 83.3762 115.377 83.3447 115.471 83.3115C116.505 82.9477 117.265 82.2954 117.517 81.1867C117.858 79.6897 117.325 78.149 115.364 77.6978C114.88 77.5858 114.373 77.5404 113.874 77.5264C112.916 77.5002 111.954 77.5194 110.996 77.5194C110.945 77.5194 110.894 77.5264 110.831 77.5316ZM112.323 82.5507V78.7278C112.834 78.7278 113.327 78.7173 113.82 78.7313C114.126 78.7401 114.434 78.7645 114.733 78.8258C115.28 78.9394 115.754 79.1843 115.994 79.7351C116.358 80.5746 116.207 81.9614 114.794 82.4003C113.986 82.6522 113.159 82.4913 112.325 82.549L112.323 82.5507Z" fill="white"/>
<path id="Vector_5" d="M174.49 87.9986C173.35 86.4369 172.241 84.9207 171.131 83.4009C171.272 83.3485 171.447 83.2925 171.618 83.2226C173.175 82.5843 173.899 80.9823 173.348 79.3962C173.028 78.4745 172.329 77.9726 171.437 77.747C170.912 77.6141 170.359 77.5494 169.817 77.5302C168.836 77.4969 167.853 77.5197 166.87 77.5214C166.834 77.5214 166.797 77.5267 166.745 77.5302V87.9863H168.203V83.7C168.656 83.7 169.088 83.6773 169.515 83.714C169.649 83.7262 169.801 83.8766 169.892 84.0025C170.777 85.211 171.653 86.4264 172.524 87.6453C172.698 87.8902 172.907 88.0091 173.205 88.0021C173.616 87.9933 174.028 88.0003 174.492 88.0003L174.49 87.9986ZM168.224 78.7753C168.96 78.7753 169.674 78.7299 170.38 78.7858C171.648 78.8873 172.311 79.8788 171.991 81.117C171.8 81.855 171.164 82.4076 170.3 82.4898C169.625 82.5528 168.941 82.5248 168.259 82.537C168.249 82.537 168.236 82.5213 168.222 82.5091V78.7771L168.224 78.7753Z" fill="white"/>
<path id="Vector_6" d="M93.7749 82.1258V78.7838H98.6978V77.5316H92.2884V87.9808H98.6961V86.7724H93.7802V83.322H97.75V82.1258H93.7749Z" fill="white"/>
<path id="Vector_7" d="M148.196 87.9884H154.604V86.7694H149.688V83.319H153.66V82.1228H149.685V78.7808H154.608V77.5287H148.198V87.9849L148.196 87.9884Z" fill="white"/>
<path id="Vector_8" d="M81 77.5426C80.5401 77.5426 80.1151 77.5252 79.6936 77.5496C79.461 77.5636 79.3474 77.7647 79.2669 77.9694C78.7843 79.1935 78.3016 80.4177 77.8172 81.6419C77.3467 82.8311 76.8711 84.0185 76.4059 85.2095C76.2974 85.4893 76.2222 85.7813 76.1226 86.0961C76.0718 85.9387 76.0334 85.7936 75.9792 85.6554C75.2656 83.8366 74.5521 82.0161 73.8369 80.1991C73.5466 79.4628 73.2545 78.7283 72.9625 77.9938C72.8103 77.6126 72.6774 77.5217 72.2664 77.5199C71.9324 77.5199 71.5966 77.5199 71.2206 77.5199C71.3326 77.8085 71.427 78.0585 71.5284 78.3069C72.8086 81.474 74.0922 84.6393 75.3671 87.8064C75.4283 87.9603 75.5052 88.0076 75.6626 88.0023C75.9617 87.9901 76.2625 87.9901 76.5615 88.0023C76.7189 88.0093 76.7959 87.9603 76.8571 87.8082C77.8784 85.2672 78.9067 82.7296 79.9332 80.1904C80.255 79.3946 80.575 78.5989 80.8951 77.8032C80.9266 77.7263 80.9563 77.6511 80.9983 77.5426H81Z" fill="white"/>
<path id="Vector_9" d="M133.418 87.9863V78.8103H136.729V77.5371H128.609V78.798H131.928V87.9863H133.418Z" fill="white"/>
<path id="Vector_10" d="M37.2802 87.9832H38.7615C38.7667 87.9063 38.7755 87.8258 38.7755 87.7471C38.7755 84.4192 38.7755 81.0929 38.7807 77.7649C38.7807 77.5603 38.7195 77.5061 38.5236 77.5148C38.1949 77.5306 37.8626 77.5323 37.5338 77.5148C37.3152 77.5026 37.275 77.5883 37.275 77.7876C37.2802 80.7361 37.2785 83.6864 37.2785 86.6367C37.2785 87.0809 37.2785 87.5251 37.2785 87.985L37.2802 87.9832Z" fill="white"/>
</g>
</g>
</svg>
